Run_40001
nRows=4
nColumns=161

# SIMM Motion File Header:
name Run_40001
datacolumns 161
datarows 4
otherdata 1
range 4.10833300 4.13333300
endheader
time	pelvis_tilt	pelvis_list	pelvis_rotation	pelvis_tx	pelvis_ty	pelvis_tz	hip_flexion_r	hip_adduction_r	hip_rotation_r	knee_angle_r	ankle_angle_r	hip_flexion_l	hip_adduction_l	hip_rotation_l	knee_angle_l	ankle_angle_l	lumbar_extension	lumbar_bending	lumbar_rotation	arm_flex_r	arm_add_r	arm_rot_r	elbow_flex_r	pro_sup_r	arm_flex_l	arm_add_l	arm_rot_l	elbow_flex_l	pro_sup_l	subtalar_angle_r	mtp_angle_r	subtalar_angle_l	mtp_angle_l	wrist_flex_r	wrist_dev_r	wrist_flex_l	wrist_dev_l	LASI_tx	LASI_ty	LASI_tz	RASI_tx	RASI_ty	RASI_tz	LPSI_tx	LPSI_ty	LPSI_tz	RPSI_tx	RPSI_ty	RPSI_tz	RTH1_tx	RTH1_ty	RTH1_tz	RTH3_tx	RTH3_ty	RTH3_tz	LTH1_tx	LTH1_ty	LTH1_tz	LTH2_tx	LTH2_ty	LTH2_tz	LTH3_tx	LTH3_ty	LTH3_tz	RTB1_tx	RTB1_ty	RTB1_tz	RTB2_tx	RTB2_ty	RTB2_tz	RTB3_tx	RTB3_ty	RTB3_tz	LTB1_tx	LTB1_ty	LTB1_tz	LTB2_tx	LTB2_ty	LTB2_tz	LTB3_tx	LTB3_ty	LTB3_tz	RCAL_tx	RCAL_ty	RCAL_tz	RTOE_tx	RTOE_ty	RTOE_tz	RMT5_tx	RMT5_ty	RMT5_tz	LCAL_tx	LCAL_ty	LCAL_tz	LTOE_tx	LTOE_ty	LTOE_tz	LMT5_tx	LMT5_ty	LMT5_tz	LACR_tx	LACR_ty	LACR_tz	RACR_tx	RACR_ty	RACR_tz	CLAV_tx	CLAV_ty	CLAV_tz	C7_tx	C7_ty	C7_tz	RUA1_tx	RUA1_ty	RUA1_tz	RUA2_tx	RUA2_ty	RUA2_tz	RUA3_tx	RUA3_ty	RUA3_tz	RLEL_tx	RLEL_ty	RLEL_tz	RMEL_tx	RMEL_ty	RMEL_tz	LUA1_tx	LUA1_ty	LUA1_tz	LUA2_tx	LUA2_ty	LUA2_tz	LUA3_tx	LUA3_ty	LUA3_tz	LLEL_tx	LLEL_ty	LLEL_tz	LMEL_tx	LMEL_ty	LMEL_tz	RFAsuperior_tx	RFAsuperior_ty	RFAsuperior_tz	RFAradius_tx	RFAradius_ty	RFAradius_tz	RFAulna_tx	RFAulna_ty	RFAulna_tz	LFAsuperior_tx	LFAsuperior_ty	LFAsuperior_tz	LFAradius_tx	LFAradius_ty	LFAradius_tz	LFAulna_tx	LFAulna_ty	LFAulna_tz
      4.10833300	     -7.14131493	      7.40230511	      0.08563962	      0.95813997	      0.99755767	     -0.31721081	    -26.99633921	     -3.10887971	     -0.17923201	     -5.12416482	    -25.60539892	     46.18870848	     13.41120914	      5.10687417	    -46.57465065	      8.93333835	     -0.88679456	     -7.17065227	      6.99888688	    -22.64983067	    -24.43777217	      5.21283516	    111.17450034	    102.16284845	    -51.43111881	    -27.88478773	      1.91371313	    103.92124687	    120.15812747	      0.00000000	      0.00000000	      0.00000000	      0.00000000	      0.00000000	      0.00000000	      0.00000000	      0.00000000	      0.97072056	      1.04330784	     -0.43030558	      0.97097545	      1.00226878	     -0.20088079	      0.81247464	      1.07432047	     -0.35897182	      0.81272440	      1.06910026	     -0.26325309	      0.84098006	      0.86378934	     -0.14123128	      0.69057799	      0.65795184	     -0.20313633	      0.98198712	      0.87869783	     -0.47487909	      1.08841468	      0.82185367	     -0.45889105	      1.08952999	      0.69216309	     -0.42861750	      0.59292904	      0.44056202	     -0.27068605	      0.52332733	      0.41863953	     -0.20954049	      0.50518576	      0.34831429	     -0.27230021	      1.17845520	      0.49406118	     -0.35144322	      1.13334757	      0.42717859	     -0.43145558	      1.13772436	      0.32760287	     -0.36193630	      0.33568853	      0.30657260	     -0.28013559	      0.42933399	      0.12037655	     -0.32470625	      0.39172535	      0.11484843	     -0.23727871	      1.01854575	      0.19172404	     -0.37758382	      1.22111441	      0.18730009	     -0.32779189	      1.21989240	      0.16753683	     -0.41685479	      0.90925939	      1.49122135	     -0.49175264	      0.95410856	      1.48754174	     -0.10883172	      0.98525484	      1.47561649	     -0.28721192	      0.86218639	      1.53599170	     -0.30684654	      0.91416730	      1.35573730	     -0.04853775	      0.83878207	      1.35249924	     -0.04724439	      0.88341509	      1.28333234	     -0.00964199	      0.85624977	      1.21496433	      0.00986167	      0.80888726	      1.19483935	     -0.05653908	      0.81304367	      1.41896304	     -0.55938473	      0.73641122	      1.41092983	     -0.54454741	      0.76766887	      1.34772580	     -0.58657929	      0.69047777	      1.30886599	     -0.61254344	      0.65569173	      1.31783276	     -0.53432644	      0.96163194	      1.19259849	     -0.05545212	      1.03101867	      1.17830327	     -0.15395047	      1.03913451	      1.11732462	     -0.11873286	      0.76548544	      1.20629135	     -0.58539832	      0.83464484	      1.14655186	     -0.49286581	      0.81791858	      1.10768024	     -0.54658259
      4.11666700	     -7.51597823	      7.08340676	      0.29512374	      0.96040588	      0.99956075	     -0.31759080	    -27.14919396	     -2.76649728	      0.26708062	     -7.46648633	    -25.10517143	     44.84868715	     13.40392057	      6.98427677	    -39.50210940	      8.73356474	     -0.16747662	     -6.83337738	      7.44903830	    -23.50256311	    -24.59036966	      5.10224762	    111.22861373	    102.10640401	    -51.61683113	    -28.12573444	      1.69957994	    104.27504331	    120.50050596	      0.00000000	      0.00000000	      0.00000000	      0.00000000	      0.00000000	      0.00000000	      0.00000000	      0.00000000	      0.97231416	      1.04491088	     -0.43074597	      0.97303510	      1.00461788	     -0.20113851	      0.81421062	      1.07798194	     -0.35836830	      0.81647824	      1.07275050	     -0.26239943	      0.84131173	      0.86789181	     -0.14061568	      0.69000915	      0.66270156	     -0.20240956	      0.98241593	      0.87842007	     -0.47786623	      1.08726517	      0.81908591	     -0.45707625	      1.08799562	      0.68967220	     -0.42988430	      0.58495247	      0.44822679	     -0.27145131	      0.51734378	      0.42762997	     -0.20839355	      0.49254952	      0.36099081	     -0.27200898	      1.18333927	      0.49310716	     -0.34966775	      1.14586675	      0.42136587	     -0.42942205	      1.15783722	      0.32362440	     -0.35792694	      0.32045006	      0.32749559	     -0.27576817	      0.40505148	      0.13751103	     -0.32303927	      0.36993663	      0.13347182	     -0.23451218	      1.05201888	      0.17655745	     -0.37257949	      1.25314569	      0.19284594	     -0.31971929	      1.25535209	      0.17024586	     -0.40826107	      0.90797585	      1.49318855	     -0.49153836	      0.95651861	      1.49000960	     -0.10939023	      0.98616671	      1.47789042	     -0.28766819	      0.86252055	      1.53765321	     -0.30622961	      0.91644862	      1.35937414	     -0.04818888	      0.84099673	      1.35622382	     -0.04700872	      0.88563618	      1.28753582	     -0.00836753	      0.85841992	      1.21873418	      0.01102515	      0.81027755	      1.19856980	     -0.05499612	      0.81143392	      1.42152965	     -0.55871648	      0.73493918	      1.41327837	     -0.54357750	      0.76603186	      1.35056016	     -0.58649761	      0.68874411	      1.31176359	     -0.61202402	      0.65429190	      1.32003094	     -0.53344771	      0.96292196	      1.19555668	     -0.05545794	      1.03127825	      1.18061792	     -0.15464355	      1.03928463	      1.11961140	     -0.11952224	      0.76506181	      1.21007081	     -0.58572714	      0.83524305	      1.15055212	     -0.49384313	      0.81889697	      1.11178301	     -0.54772150
      4.12500000	     -7.73984552	      6.45222166	      0.31963782	      0.96212121	      1.00099101	     -0.31746327	    -26.86156812	     -2.11713050	      0.95073993	    -11.02521568	    -23.83039506	     43.29194835	     12.88595851	      8.96860658	    -32.75125445	      8.62844812	      0.30028873	     -6.16969211	      7.89740261	    -24.18782927	    -24.77348026	      5.09279280	    110.92943952	    101.92514413	    -51.53622624	    -28.22984878	      1.51385565	    104.49974161	    120.81743530	      0.00000000	      0.00000000	      0.00000000	      0.00000000	      0.00000000	      0.00000000	      0.00000000	      0.00000000	      0.97340554	      1.04533389	     -0.43085490	      0.97446700	      1.00688026	     -0.20129261	      0.81545747	      1.08072428	     -0.35797839	      0.81866098	      1.07623425	     -0.26135574	      0.84129206	      0.87201688	     -0.14052037	      0.69189572	      0.66471816	     -0.20146687	      0.98243697	      0.87734113	     -0.48048941	      1.08615675	      0.81575133	     -0.45542305	      1.08612705	      0.68621136	     -0.43116748	      0.57845163	      0.45404427	     -0.27189337	      0.51208918	      0.43552448	     -0.20743178	      0.48066295	      0.37352209	     -0.27194222	      1.18652549	      0.49113839	     -0.34867472	      1.15647262	      0.41547609	     -0.42742978	      1.17543442	      0.32041457	     -0.35375076	      0.30529447	      0.34943220	     -0.27204542	      0.38073332	      0.15651212	     -0.32205502	      0.34917009	      0.15396786	     -0.23178174	      1.08287780	      0.16381721	     -0.36698423	      1.28088171	      0.19993456	     -0.31241698	      1.28642684	      0.17480613	     -0.40032603	      0.90727969	      1.49442490	     -0.49160046	      0.95852745	      1.49164073	     -0.10993255	      0.98717318	      1.47959456	     -0.28825420	      0.86300469	      1.53880578	     -0.30594803	      0.91826372	      1.36203983	     -0.04800644	      0.84275900	      1.35899759	     -0.04684913	      0.88721360	      1.29067586	     -0.00743802	      0.85995265	      1.22158528	      0.01198427	      0.81121160	      1.20143488	     -0.05365041	      0.81043211	      1.42295795	     -0.55821595	      0.73401456	      1.41435697	     -0.54287351	      0.76515477	      1.35201180	     -0.58644632	      0.68792540	      1.31319333	     -0.61170221	      0.65361795	      1.32085077	     -0.53282682	      0.96367580	      1.19684300	     -0.05535454	      1.03115765	      1.18077705	     -0.15501405	      1.03859869	      1.11978593	     -0.11988288	      0.76553094	      1.21241795	     -0.58621455	      0.83674248	      1.15311550	     -0.49488749	      0.82078931	      1.11449138	     -0.54892568
      4.13333300	     -7.75107204	      5.57025392	      0.20571984	      0.96321361	      1.00198473	     -0.31694978	    -26.24200227	     -1.24535666	      1.48766295	    -15.63766709	    -22.35077518	     41.55329604	     11.94425284	     10.90618922	    -26.51989597	      8.56598573	      0.41210667	     -5.24498636	      8.27192139	    -24.66495153	    -24.99477085	      5.19083002	    110.28291066	    101.59358849	    -51.18475870	    -28.16951591	      1.33839488	    104.59665030	    121.08680386	      0.00000000	      0.00000000	      0.00000000	      0.00000000	      0.00000000	      0.00000000	      0.00000000	      0.00000000	      0.97402740	      1.04492091	     -0.43053255	      0.97550659	      1.00905332	     -0.20141604	      0.81627131	      1.08231467	     -0.35784010	      0.81874044	      1.07953309	     -0.26031372	      0.84119659	      0.87601405	     -0.14105331	      0.69598231	      0.66411136	     -0.20050265	      0.98175187	      0.87553406	     -0.48234334	      1.08492539	      0.81182698	     -0.45475094	      1.08305386	      0.68173702	     -0.43190379	      0.57379373	      0.45829826	     -0.27154192	      0.50716195	      0.44328132	     -0.20635745	      0.47027129	      0.38575839	     -0.27134745	      1.18806603	      0.48827944	     -0.34804201	      1.16481542	      0.40977305	     -0.42536622	      1.19006379	      0.31776307	     -0.34970630	      0.29222218	      0.37266315	     -0.26878458	      0.35733204	      0.17694565	     -0.32089752	      0.32898616	      0.17588677	     -0.22890056	      1.11008397	      0.15357388	     -0.36141728	      1.30376104	      0.20769545	     -0.30613202	      1.31253330	      0.18035328	     -0.39321989	      0.90718901	      1.49500086	     -0.49192619	      0.96005132	      1.49252727	     -0.11046583	      0.98824589	      1.48078084	     -0.28896704	      0.86367520	      1.53954656	     -0.30607964	      0.91963659	      1.36363632	     -0.04804367	      0.84403204	      1.36085221	     -0.04677966	      0.88819169	      1.29269752	     -0.00688307	      0.86081838	      1.22356196	      0.01271313	      0.81160060	      1.20353984	     -0.05254668	      0.81011488	      1.42331143	     -0.55795874	      0.73373701	      1.41420252	     -0.54234622	      0.76505455	      1.35220816	     -0.58642615	      0.68804014	      1.31321833	     -0.61155702	      0.65381207	      1.32035149	     -0.53242151	      0.96387613	      1.19645214	     -0.05509739	      1.03064730	      1.17881899	     -0.15500675	      1.03706408	      1.11788499	     -0.11975929	      0.76689570	      1.21334787	     -0.58683667	      0.83914166	      1.15428646	     -0.49598158	      0.82354128	      1.11579928	     -0.55016313
